<?xml version="1.0" encoding="utf-8"?>
<!-- Generator: Adobe Illustrator 23.0.0, SVG Export Plug-In . SVG Version: 6.00 Build 0)  -->
<svg version="1.1" id="Layer_1" xmlns="http://www.w3.org/2000/svg" xmlns:xlink="http://www.w3.org/1999/xlink" x="0px" y="0px"
	 viewBox="0 0 32 32" style="enable-background:new 0 0 32 32;" xml:space="preserve">
<style type="text/css">
	.st0{fill:#FFFFFF;}
</style>
<g transform="translate(82.429 26.746)">
	<path class="st0" d="M-65.5-19.1c-0.2-0.2-0.5-0.4-0.8-0.7c-0.5-0.6-1.4-0.6-2-0.1c-0.1,0.1-0.1,0.1-0.2,0.2
		c-0.8,0.7-13.1,11.7-13.1,11.7c-0.2,0.3-0.4,0.7-0.4,1.1L-65.5-19.1z"/>
	<path class="st0" d="M-64.3-14.3c0,0.9,1.1,0.4,1.6,0c0.6-0.3,2.3-1.3,3.9-0.4c1.1,0.7,5,2.3,7.4,3.2c-0.1-0.8-0.2-1.6-0.2-2.4
		c0-1.4-0.2-1.7-0.8-2.3c-0.6-0.5-5.4-3.3-6.7-4.1c-1.2-0.8-1.8-0.7-2.5-0.2s-2.9,1.9-3,2C-64.4-17.7-64.3-15-64.3-14.3z"/>
	<path class="st0" d="M-58.9-8.9c0.8,0.2,5.8,1.5,8.2,2.1c0-0.3-0.1-0.6-0.1-1c0-0.7-0.1-1.3-0.2-2c-2.5-1-6.9-2.8-7.6-3
		c-1-0.3-1.6-0.3-1.5,0.9c0.1,1.2,0.1,1.4,0.1,1.8C-59.9-9.8-60-9.2-58.9-8.9z"/>
	<path class="st0" d="M-67-16.4L-82-6.4c0,0.2,0,0.5-0.1,0.8l15-7.3L-67-16.4z"/>
	<path class="st0" d="M-61.2-4.9c-1-1.6-2.9-2.5-4.8-2.2c-0.8,0.2-12.3,2.7-16.5,3.6c0,0.7,0.2,1,0.4,1.1c0,0,0.5,0,1.2,0
		c0.1,0.5,1.1,0.9,2.3,0.9c0.8,0.1,1.6-0.2,2.2-0.8l3.6,0.1c0.1,0.5,1,1,2,1c0.8,0.1,1.5-0.2,2-0.9l1.5,0c0,0,0,0,0,0
		c0,0.7,1.3,1.3,3,1.3c1.6,0,2.9-0.5,3-1.2l1.1,0C-60.3-3-60.7-4-61.2-4.9z"/>
	<path class="st0" d="M-67-8.2v-3l-15.2,6.6c0,0,0,0,0,0.1c-0.1,0.2-0.1,0.4-0.1,0.6L-67-8.2z"/>
	<path class="st0" d="M-59-7.5c-0.9-0.1-1.9-0.1-2.8,0.1c-0.3,0.1,0,0.3,0.8,0.7c0.8,0.4,3.2,1.8,4,3.6c0.2,0.4,0.3,0.8,0.4,1.2
		c1,0.2,2.1,0.3,3.1,0.2c1.8-0.1,2.3-0.2,2.5-1.4s0.4-1.5,0.5-2.1c0-0.1,0-0.2,0-0.2C-52.9-6.1-58-7.4-59-7.5z"/>
</g>
</svg>
