<svg xmlns="http://www.w3.org/2000/svg" width="29.619" height="29.835" viewBox="0 0 29.619 29.835"><defs><style>.a{fill:#fff;}</style></defs><g transform="translate(-2 -1.745)"><path class="a" d="M25.045,45.26a.423.423,0,0,1-.3-.722l1.989-1.989a.423.423,0,1,1,.6.6l-1.989,1.989a.423.423,0,0,1-.3.124Z" transform="translate(-13.05 -23.467)"/><path class="a" d="M46,49.884q-.254,0-.508-.013a.424.424,0,0,1,.042-.846,9.357,9.357,0,0,0,2.615-.239.423.423,0,1,1,.194.823A10.193,10.193,0,0,1,46,49.884Z" transform="translate(-24.858 -27.128)"/><path class="a" d="M29.959,22.338a.432.432,0,0,1-.121-.018,10.507,10.507,0,1,1,11.49-3.871.424.424,0,1,1-.684-.5,9.656,9.656,0,1,0-10.564,3.56.423.423,0,0,1-.121.829Z" transform="translate(-11.731)"/><path class="a" d="M56.707,46.026a.423.423,0,0,1-.148-.821,9.394,9.394,0,0,0,2.131-1.382.423.423,0,0,1,.55.641,10.23,10.23,0,0,1-2.357,1.523.426.426,0,0,1-.177.039Z" transform="translate(-31.311 -24.222)"/><path class="a" d="M36.262,23.638a8,8,0,1,1,7.85-6.444,7.941,7.941,0,0,1-7.85,6.444Zm0-15.136a7.148,7.148,0,1,0,6.908,5.3,7.148,7.148,0,0,0-6.908-5.3Z" transform="translate(-15.147 -3.395)"/><path class="a" d="M4.86,55.562A2.86,2.86,0,0,1,2.837,50.68l7.245-7.243a.435.435,0,0,1,.6,0l3.445,3.445a.423.423,0,0,1,0,.6L6.881,54.724A2.841,2.841,0,0,1,4.86,55.562Zm5.519-11.227L3.436,51.279a2.013,2.013,0,1,0,2.847,2.847l6.943-6.944Z" transform="translate(0 -23.982)"/><path class="a" d="M20.267,52a.423.423,0,0,1-.3-.124l-3.445-3.445a.424.424,0,0,1,.6-.6l3.445,3.445a.423.423,0,0,1-.3.722Z" transform="translate(-8.306 -26.514)"/></g></svg>