<svg xmlns="http://www.w3.org/2000/svg" width="35.984" height="22.762" viewBox="0 0 35.984 22.762"><defs><style>.a{fill:#fff;}</style></defs><g transform="translate(0 -94.062)"><g transform="translate(0 94.062)"><path class="a" d="M33.465,103.712l-.932-3.727a.564.564,0,0,0,.446-.551v-.6a2.369,2.369,0,0,0-2.366-2.366H26.368v-1.24A1.166,1.166,0,0,0,25.2,94.062H3.568A1.166,1.166,0,0,0,2.4,95.226v10.217a.563.563,0,1,0,1.127,0V95.226a.038.038,0,0,1,.038-.038H25.2a.038.038,0,0,1,.038.038v10.217a.563.563,0,0,0,1.127,0V104.8h6.649a1.844,1.844,0,0,1,1.751,1.277H33.017a.563.563,0,0,0-.563.563v1.2a1.767,1.767,0,0,0,1.765,1.765h.639v2.479H33.384a3.567,3.567,0,0,0-6.745,0h-.271v-4.245a.563.563,0,1,0-1.127,0v4.244H13.552a3.567,3.567,0,0,0-6.745,0H3.568a.038.038,0,0,1-.038-.038v-1.24H5.972a.563.563,0,1,0,0-1.127H.563a.563.563,0,1,0,0,1.127H2.4v1.24a1.166,1.166,0,0,0,1.164,1.164H6.612c0,.012,0,.025,0,.038a3.568,3.568,0,1,0,7.137,0c0-.013,0-.025,0-.038h12.7c0,.012,0,.025,0,.038a3.568,3.568,0,1,0,7.137,0c0-.013,0-.025,0-.038h1.842a.563.563,0,0,0,.563-.563v-6.01A2.972,2.972,0,0,0,33.465,103.712Zm-7.1-6.119h4.244a1.241,1.241,0,0,1,1.24,1.24v.038H26.368Zm0,6.085V100h5.007l.92,3.681ZM10.179,115.7a2.442,2.442,0,1,1,2.442-2.442A2.444,2.444,0,0,1,10.179,115.7Zm19.833,0a2.442,2.442,0,1,1,2.442-2.442A2.444,2.444,0,0,1,30.012,115.7Zm4.846-7.212h-.639a.639.639,0,0,1-.639-.639v-.639h1.277v1.277Z" transform="translate(0 -94.062)"/></g><g transform="translate(9.015 112.092)"><path class="a" d="M129.431,350.6a1.164,1.164,0,1,0,1.164,1.164A1.166,1.166,0,0,0,129.431,350.6Z" transform="translate(-128.267 -350.597)"/></g><g transform="translate(28.847 112.092)"><path class="a" d="M411.619,350.6a1.164,1.164,0,1,0,1.164,1.164A1.166,1.166,0,0,0,411.619,350.6Z" transform="translate(-410.455 -350.597)"/></g><g transform="translate(14.424 109.688)"><g transform="translate(0 0)"><path class="a" d="M214.2,316.393H205.79a.563.563,0,1,0,0,1.127H214.2a.563.563,0,1,0,0-1.127Z" transform="translate(-205.227 -316.393)"/></g></g><g transform="translate(1.202 107.284)"><path class="a" d="M24.877,282.188H17.665a.563.563,0,1,0,0,1.127h7.212a.563.563,0,1,0,0-1.127Z" transform="translate(-17.102 -282.188)"/></g><g transform="translate(10.217 99.471)"><path class="a" d="M154.745,171.188a.563.563,0,0,0-.8,0l-5.011,5.01-2.607-2.607a.563.563,0,0,0-.8.8l3,3a.563.563,0,0,0,.8,0l5.409-5.409A.564.564,0,0,0,154.745,171.188Z" transform="translate(-145.37 -171.023)"/></g></g></svg>